<?xml version="1.0" encoding="UTF-8"?> <!-- Generator: Adobe Illustrator 28.0.0, SVG Export Plug-In . SVG Version: 6.00 Build 0) --> <svg xmlns="http://www.w3.org/2000/svg" xmlns:xlink="http://www.w3.org/1999/xlink" version="1.1" x="0px" y="0px" viewBox="0 0 512 512" style="enable-background:new 0 0 512 512;" xml:space="preserve"> <style type="text/css"> .st0{fill:#C71618;} .st1{fill:#960505;} .st2{fill:#7B0102;} .st3{fill:#750102;} .st4{fill:#FFFFFF;} </style> <g id="Layer_1"> <path class="st0" d="M500.22,225.81c-6.58-32.48-29.37-63.47-34-69.52l-1.03-0.65l0.19-0.43c0,0,0.31,0.38,0.84,1.08 c-1.22-4.64-2.56-9.34-4.05-14.08c0,0-30.02-109.47-143.91-127.13c-113.89-17.66-221.7,65.4-221.7,65.4s-44.7,28.42-67.62,77.02 C6.03,206.1,6.03,237.57,6.03,237.57s-0.92,34.23,7.64,60.51c8.56,26.28,29.86,166.03,224.13,199.35 c30.76,4.26,56.23,1.24,78.16-6.45l0,0l0.03-0.01c1.84-0.65,3.65-1.32,5.44-2.03l0,0l0.07-0.03c1.53-0.61,3.05-1.24,4.54-1.89 l2.43-1.01c39.41-2.42,64.41-12.86,87.39-27.32c8.4-5.65,20.06-15.56,31.78-28.73C481.58,391.84,521.01,324.61,500.22,225.81z M329.19,485.71L329.19,485.71L329.19,485.71L329.19,485.71z"></path> <path class="st1" d="M466.22,156.29c-0.53-0.7-0.84-1.08-0.84-1.08S401.51,50.38,318.68,52.98c-45.8,3.31-76.18,13.94-103.91,27.2 c-21.34,10.21-41.45,21.56-63.42,35.26l0.27,1.09c-1.02,0.17-2.03,0.37-3.01,0.63c-1.05,0.28,1.83-1.15,2.75-1.72 c-15.69,5.32-31.15,11.81-46.24,19.41c-91.32,45.96-91.25,99.48-91.25,99.48s-9.55,36.82,45.69,96.15 c0.04,0.04,0.08,0.08,0.11,0.12c0.25,0.22,0.5,0.43,0.75,0.64c-0.28-0.19-0.53-0.4-0.75-0.64c0.31,0.83,0.61,1.66,0.93,2.49 c20.17,52.26,87.56,120.11,172.37,144.41c32.18,9.22,62.06,9.83,88.63,8.86c2.28-0.08,4.51-0.2,6.7-0.33 c20.07-9.15,37.12-22.26,52.74-36.96c21.97-20.68,41.31-43.71,54.25-65.4c18.92-31.71,26.36-58.98,26.36-58.98 S491.31,251.96,466.22,156.29z"></path> <path class="st2" d="M452.06,256.87c-0.08-16.33-1.78-32.8-6.02-48.44c-9.24-27.4-20.74-48.45-49.64-69.57 c-78.38-46.78-164.89-50.57-245.05-23.42c-0.91,0.57-1.83,1.14-2.75,1.72c-51.8,32.55-69.68,59.6-85.73,91.23 c-15.79,31.13-22.24,71.14-3.22,122.2c12.63,13.5,34.15,25.98,58.17,39.98c81.41,47.45,210.77,89.5,285.45,51.17 c0,0,20.67-8.93,29.14-45.57c3.94-17.01,16.25-56.96,19.07-100.63"></path> <path class="st3" d="M356.19,167.11c-53.06,0-96.08,43.01-96.08,96.08s43.01,96.07,96.08,96.07c48.88,0,89.23-36.5,95.29-83.72 c0.4-6.17,0.61-12.41,0.58-18.67C448.8,206.76,407.13,167.11,356.19,167.11z"></path> <g> <path class="st4" d="M82.64,277.76c-14.44,0-26.31-9.86-26.31-28.1c0-18.24,11.87-28.1,26.31-28.1c14.44,0,26.31,9.86,26.31,28.1 C108.96,267.9,97.08,277.76,82.64,277.76 M97.93,250.36c0-12.26-7.06-19.72-15.68-19.72c-7.68,0-14.9,5.59-14.9,18.32 c0,12.26,7.14,19.71,15.76,19.71C90.79,268.68,97.93,263.09,97.93,250.36"></path> <path class="st4" d="M150.63,246.33c0.15,1.16,0.23,2.4,0.23,3.65v26.86h-7.68c-1.86,0-2.64-0.7-2.64-2.09v-25.46 c0-4.42-2.41-6.36-5.74-6.36c-2.87,0-5.74,1.09-7.99,3.49v30.43h-7.76c-1.86,0-2.64-0.7-2.64-2.09v-38.96 c2.25-0.54,4.66-0.93,7.37-0.93c2.1,0,3.03,0.85,3.03,2.41v2.56c2.87-3.42,7.06-5.2,11.02-5.2c4.58,0,8.54,1.71,10.94,5.74 c3.34-3.49,8.07-5.9,12.88-5.9c7.76,0,13.35,4.5,13.35,15.45v15.6c0,2.64,0.78,3.73,2.56,3.73h1.94c0.39,1.09,0.54,2.17,0.54,3.26 c0,2.17-2.1,4.89-6.75,4.89c-4.43,0-8.69-2.48-8.69-10.48v-17.62c0-4.5-2.41-6.36-5.82-6.36 C155.75,242.91,152.96,244.15,150.63,246.33"></path> <path class="st4" d="M188.19,276.83c-1.86,0-2.64-0.7-2.64-2.09v-38.96c2.17-0.62,4.66-0.93,7.37-0.93c2.02,0,2.95,0.78,2.95,2.33 v2.72c3.03-3.26,7.92-5.43,12.65-5.43c9.16,0,14.44,6.29,14.44,18.01v13.04c0,2.64,0.78,3.73,2.48,3.73h2.02 c0.39,1.09,0.54,2.25,0.54,3.49c0,2.17-2.56,4.65-6.75,4.65c-4.42,0-8.69-2.56-8.69-10.55v-15.06c0-5.9-2.41-8.93-7.53-8.93 c-3.18,0-6.75,1.4-9.16,3.49v30.5H188.19z"></path> <path class="st4" d="M232.74,224.59c0-3.42,2.41-5.43,5.67-5.43c3.03,0,5.9,2.17,5.9,5.67c0,3.49-2.33,5.43-5.74,5.43 C235.53,230.26,232.74,228.16,232.74,224.59 M233.44,235.77c2.25-0.62,4.66-0.93,7.37-0.93c2.02,0,2.95,0.78,2.95,2.33v28.41 c0,2.64,0.85,3.73,2.56,3.73h2.02c0.31,1.09,0.54,2.25,0.54,3.49c0,2.17-2.64,4.58-6.75,4.58c-4.42,0-8.69-2.48-8.69-10.48V235.77 z"></path> <path class="st4" d="M258.11,262.39v-18.7h-4.73c-1.47,0-2.25-0.85-2.25-2.72s0.23-3.96,0.62-5.59h6.36V223.9 c2.25-0.62,4.66-0.93,7.37-0.93c2.02,0,3.03,0.78,3.03,2.33v10.09h11.33c1.4,0,2.1,0.78,2.1,2.64v5.67h-13.43v19.25 c0,4.66,2.56,6.44,6.36,6.44c2.02,0,4.35-0.39,5.9-1.09c0.78,0.93,1.4,2.79,1.4,4.19c0,2.33-3.8,5.28-10.17,5.28 C263.7,277.76,258.11,272.4,258.11,262.39"></path> <path class="st4" d="M319.04,238.8c0,2.09-2.48,4.58-4.81,5.98c-1.86-1.4-4.27-1.94-6.44-1.94c-4.66,0-7.84,2.95-9.08,8.38v25.61 h-7.68c-1.86,0-2.64-0.62-2.64-2.02v-39.04c2.25-0.62,4.66-0.93,7.37-0.93c2.02,0,2.95,0.78,2.95,2.33v4.11 c2.25-3.88,6.6-6.68,11.8-6.68C314.54,234.61,319.04,235.62,319.04,238.8"></path> <path class="st4" d="M324.63,244.93c-0.78-1.09-1.24-2.79-1.24-4.12c0-2.72,6.44-6.36,14.83-6.36c11.41,0,17.85,5.59,17.85,16.69 v14.36c0,2.87,1.01,3.8,2.79,3.8h1.79c0.31,1.09,0.54,2.17,0.54,3.49c0,2.09-2.64,4.58-6.75,4.58c-3.26,0-6.6-1.86-7.92-6.13 c-2.56,4.04-6.98,6.52-12.34,6.52c-8.46,0-14.21-5.51-14.21-13.19c0-8.46,6.52-13.51,16.46-13.51c3.34,0,7.22,0.78,9.31,1.86 v-2.56c0-4.97-3.18-7.84-10.4-7.84C331.69,242.52,327.96,243.3,324.63,244.93 M345.74,263.94v-4.58c-1.63-0.62-5.04-0.93-7.3-0.93 c-5.2,0-8.15,2.17-8.15,5.82c0,3.65,2.87,5.43,6.52,5.43C340.38,269.69,344.11,267.67,345.74,263.94"></path> <path class="st4" d="M402,220.17c1.86,0,2.64,0.78,2.64,2.17v43.23c0,2.79,1.01,3.73,2.79,3.73h1.71 c0.39,1.09,0.54,2.17,0.54,3.49c0,2.09-2.56,4.58-6.75,4.58c-3.42,0-7.06-2.17-8.23-7.22c-2.95,5.04-7.99,7.61-13.27,7.61 c-9.78,0-17.54-7.61-17.54-19.95c0-14.44,9.63-23.36,20.1-23.36c4.04,0,7.68,1.4,10.32,3.88v-18.16H402z M394.32,245.63 c-2.17-1.94-4.89-2.72-7.92-2.72c-6.99,0-12.03,6.05-12.03,14.59c0,7.45,3.49,11.95,9.7,11.95c4.19,0,8.15-2.72,10.25-8.54V245.63 z"></path> <path class="st4" d="M412.56,256.26c0-13.51,9.47-21.81,21.11-21.81c10.48,0,17.23,6.6,17.23,15.37c0,2.48-0.54,4.97-1.48,6.75 c-1.24,2.41-2.95,3.26-6.29,3.26h-20.03c1.01,6.52,5.9,9.78,12.57,9.78c3.65,0,6.99-0.7,9.94-2.25c0.7,1.01,1.4,2.95,1.4,4.27 c0,2.48-5.2,6.13-13.43,6.13C421.25,277.76,412.56,268.68,412.56,256.26 M423.11,252.53h17.23c0.39-0.78,0.54-1.71,0.54-2.72 c0-4.43-2.72-7.22-7.45-7.22C427.77,242.6,423.89,246.33,423.11,252.53"></path> </g> </g> <g id="Layer_2"> </g> </svg> 